:SAMPLES-PER-SECOND 30
:FULLY-SPECIFIED
:DEGREES
496
root  -66.7625 41.5677 0.50379 -179.398 -1.28163 178.778
RightUpLeg  3.77795 -8.45849 -6.87322
RightLeg  3.74403 -4.35168 2.81378
RightFoot  -4.02283 -0.00673688 -0.329439
RightToes  0.000482159 0.542163 -0.142577
Spine  0.619706 1.65573 -1.18172
Spine1  3.40306 1.5186 1.22231
HEad  -9.33615 34.7873 -3.25103
LeftShoulder1  0.437685 -0.01882 -4.40308
LeftArm  -18.3878 11.8788 -7.61067
LeftForeArm  4.51406 -1.15793 -1.29003
LeftHand  -0.25398 0.0180481 5.50724
RightShoulder  0.616404 0.640634 7.30484
RightArm  -17.3711 -11.9692 5.72703
RightForeArm  -20.717 5.17602 4.88227
RightHand  -6.47892 16.489 -33.8376
LeftUpLeg  4.28943 3.26993 -0.103095
LeftLeg  1.53548 10.7526 -3.37466
LeftFoot  -4.69893 -0.11299 2.43528
LeftToes  1.06247e-005 4.65854e-005 -8.18501e-006
497
root  -66.7057 41.5696 0.561614 -179.349 -1.54382 178.717
RightUpLeg  3.6331 -8.48033 -6.83948
RightLeg  3.83049 -4.65179 2.84183
RightFoot  -4.06554 -0.00170719 -0.407555
RightToes  0.000482159 0.542163 -0.142577
Spine  0.470763 1.64365 -1.37511
Spine1  3.5711 1.37904 1.82648
HEad  -9.4761 34.7578 -3.74868
LeftShoulder1  0.519953 -0.294343 -5.83729
LeftArm  -18.3794 12.0325 -7.11439
LeftForeArm  4.41372 -1.20854 -1.25597
LeftHand  -0.25398 0.0180481 5.50724
RightShoulder  0.571897 0.500887 6.64079
RightArm  -18.5829 -11.4822 6.64787
RightForeArm  -18.2304 3.71228 4.2352
RightHand  -6.32107 16.441 -33.1382
LeftUpLeg  4.08349 3.21561 -0.0982438
LeftLeg  1.60613 10.5304 -3.32025
LeftFoot  -4.59746 -0.113126 2.38808
LeftToes  1.06247e-005 4.65854e-005 -8.18501e-006
498
root  -66.6469 41.57 0.61878 -179.389 -1.70879 178.626
RightUpLeg  3.60647 -8.52971 -6.86317
RightLeg  3.86644 -4.77229 2.88491
RightFoot  -4.1009 0.00373677 -0.49211
RightToes  0.000482159 0.542163 -0.142577
Spine  0.440119 1.65653 -1.49808
Spine1  3.68455 1.32973 2.13575
HEad  -9.57113 34.6625 -4.00165
LeftShoulder1  0.564329 -0.405631 -6.66851
LeftArm  -18.5348 12.1327 -6.81752
LeftForeArm  4.54825 -1.52456 -1.20632
LeftHand  -0.25398 0.0180481 5.50724
RightShoulder  0.540565 0.361193 6.31192
RightArm  -19.3466 -11.0608 7.11863
RightForeArm  -17.1628 2.71543 3.8249
RightHand  -6.27235 16.4494 -32.8877
LeftUpLeg  4.02094 3.11898 -0.150573
LeftLeg  1.59548 10.4804 -3.24473
LeftFoot  -4.4948 -0.112571 2.32458
LeftToes  1.06247e-005 4.65854e-005 -8.18501e-006
499
root  -66.5754 41.5716 0.669947 -179.554 -1.89761 178.502
RightUpLeg  3.77004 -8.53573 -6.88574
RightLeg  3.83631 -4.91343 2.86117
RightFoot  -4.16518 0.00814308 -0.560552
RightToes  0.000482159 0.542163 -0.142577
Spine  0.484375 1.63736 -1.51527
Spine1  3.83883 1.35364 1.96476
HEad  -9.64274 34.5138 -3.88037
LeftShoulder1  0.574844 -0.50108 -6.5813
LeftArm  -18.6994 12.1949 -6.89498
LeftForeArm  4.69195 -1.69945 -1.15709
LeftHand  -0.25398 0.0180481 5.50724
RightShoulder  0.538248 0.248875 6.711
RightArm  -19.2226 -11.2 6.90199
RightForeArm  -17.7877 2.9579 3.91018
RightHand  -6.36619 16.5089 -33.262
LeftUpLeg  4.14146 3.04478 -0.193365
LeftLeg  1.50598 10.3649 -3.19926
LeftFoot  -4.3576 -0.110856 2.25049
LeftToes  1.06247e-005 4.65854e-005 -8.18501e-006
500
root  -66.5033 41.5748 0.716751 -179.716 -2.06314 178.453
RightUpLeg  3.95188 -8.44794 -6.79139
RightLeg  3.73589 -5.16051 2.78774
RightFoot  -4.20432 0.0106113 -0.598893
RightToes  0.000482159 0.542163 -0.142577
Spine  0.484016 1.58619 -1.40297
Spine1  4.00193 1.37755 1.62551
HEad  -9.52013 34.3425 -3.57034
LeftShoulder1  0.571665 -0.594227 -6.13292
LeftArm  -18.9286 12.2812 -7.11916
LeftForeArm  4.63147 -1.72817 -1.06958
LeftHand  -0.25398 0.0180481 5.50724
RightShoulder  0.561826 0.252823 7.39483
RightArm  -18.7288 -11.631 6.35298
RightForeArm  -18.2317 3.75704 4.17144
RightHand  -6.35804 16.4635 -33.2855
LeftUpLeg  4.23481 3.09688 -0.096291
LeftLeg  1.49666 10.1047 -3.22033
LeftFoot  -4.25919 -0.108321 2.17469
LeftToes  1.06247e-005 4.65854e-005 -8.18501e-006
501
root  -66.4471 41.5794 0.766441 -179.762 -2.07523 178.506
RightUpLeg  3.95509 -8.29755 -6.58455
RightLeg  3.63524 -5.35705 2.71886
RightFoot  -4.15497 0.0111537 -0.607318
RightToes  0.000482159 0.542163 -0.142577
Spine  0.426817 1.54593 -1.20298
Spine1  4.01951 1.37332 1.43453
HEad  -9.15043 34.259 -3.32449
LeftShoulder1  0.558467 -0.568072 -5.8708
LeftArm  -19.1829 12.4032 -7.27945
LeftForeArm  4.41884 -1.7831 -0.973016
LeftHand  -0.25398 0.0180481 5.50724
RightShoulder  0.605316 0.446853 7.80892
RightArm  -18.5819 -11.7598 5.92152
RightForeArm  -17.3116 4.04029 4.20017
RightHand  -6.14014 16.2364 -32.5366
LeftUpLeg  4.18602 3.21487 0.0919243
LeftLeg  1.53617 9.93591 -3.26221
LeftFoot  -4.21416 -0.105839 2.10521
LeftToes  1.06247e-005 4.65854e-005 -8.18501e-006
502
root  -66.4046 41.5838 0.82126 -179.739 -1.97447 178.56
RightUpLeg  3.81559 -8.17685 -6.40965
RightLeg  3.62852 -5.39089 2.67604
RightFoot  -4.09144 0.0105855 -0.598491
RightToes  0.000482159 0.542163 -0.142577
Spine  0.387427 1.52705 -0.990209
Spine1  3.90902 1.37423 1.30694
HEad  -8.80757 34.3002 -3.18502
LeftShoulder1  0.536971 -0.44594 -5.73218
LeftArm  -19.3172 12.5135 -7.39536
LeftForeArm  4.31879 -1.90107 -0.933944
LeftHand  -0.25398 0.0180481 5.50724
RightShoulder  0.652513 0.709585 7.99475
RightArm  -18.814 -11.5413 5.68284
RightForeArm  -16.0834 3.88372 4.04771
RightHand  -5.96983 16.0543 -31.9468
LeftUpLeg  4.10515 3.25477 0.201399
LeftLeg  1.48193 9.99633 -3.25686
LeftFoot  -4.15911 -0.103821 2.04944
LeftToes  1.06247e-005 4.65854e-005 -8.18501e-006
503
root  -66.3614 41.5852 0.874774 -179.75 -1.94145 178.547
RightUpLeg  3.70048 -8.1405 -6.34725
RightLeg  3.70917 -5.37532 2.66922
RightFoot  -4.11475 0.0110507 -0.605718
RightToes  0.000482159 0.542163 -0.142577
Spine  0.378967 1.50363 -0.815654
Spine1  3.87324 1.39076 1.09537
HEad  -8.77473 34.313 -3.11802
LeftShoulder1  0.526773 -0.418817 -5.54747
LeftArm  -19.3326 12.5752 -7.49146
LeftForeArm  4.4534 -2.01621 -0.942612
LeftHand  -0.25398 0.0180481 5.50724
RightShoulder  0.674677 0.808306 8.17513
RightArm  -19.0008 -11.4001 5.55129
RightForeArm  -15.6184 3.98378 3.97471
RightHand  -6.02635 16.1122 -32.1464
LeftUpLeg  4.07273 3.21432 0.210462
LeftLeg  1.39081 10.0765 -3.2072
LeftFoot  -4.08338 -0.10229 2.00412
LeftToes  1.06247e-005 4.65854e-005 -8.18501e-006
